<svg width="17" height="40" viewBox="0 0 17 40" fill="none" xmlns="http://www.w3.org/2000/svg">
<path d="M11.24 4.39876C9.76739 2.43351 8.49892 0.437668 8.24007 0.0229573C8.23391 0.0157015 8.22651 0.00992614 8.2183 0.00598028C8.2101 0.00203441 8.20127 0 8.19235 0C8.18343 0 8.1746 0.00203441 8.1664 0.00598028C8.1582 0.00992614 8.15079 0.0157015 8.14463 0.0229573C7.8855 0.437668 6.61732 2.43351 5.14466 4.39876C-7.49611 22.5307 7.13558 34.767 7.13558 34.767L7.25821 34.8593C7.36724 36.7475 7.63997 39.4651 7.63997 39.4651H8.73086C8.73086 39.4651 9.00359 36.7628 9.11262 34.8593L9.23553 34.7517C9.24913 34.767 23.8805 22.5307 11.24 4.39876ZM8.18541 34.4908C8.18541 34.4908 7.53093 33.8611 7.35365 33.5391V33.5082L8.14463 13.7642C8.14463 13.7027 8.22648 13.7027 8.22648 13.7642L9.01718 33.5082V33.5391C8.8399 33.8611 8.18541 34.4908 8.18541 34.4908Z" fill="#01EC64"/>
</svg>
