<svg width="35" height="39" viewBox="0 0 35 39" fill="none" xmlns="http://www.w3.org/2000/svg">
<path d="M17.5 38.3125C16.9925 38.3127 16.4938 38.1792 16.0542 37.9255L11.4532 35.2017C10.7665 34.8174 11.1011 34.6817 11.3282 34.6024C12.0585 34.3768 12.7577 34.0608 13.4097 33.6617C13.4642 33.6365 13.5244 33.6256 13.5843 33.6301C13.6443 33.6345 13.7021 33.6542 13.7523 33.6873L17.2877 35.7876C17.3536 35.8224 17.4269 35.8406 17.5014 35.8406C17.5759 35.8406 17.6492 35.8224 17.715 35.7876L31.5019 27.8299C31.5664 27.7912 31.6198 27.7365 31.6568 27.671C31.6938 27.6055 31.7131 27.5315 31.7129 27.4563V11.5382C31.7129 11.4618 31.6933 11.3867 31.6559 11.3201C31.6185 11.2535 31.5645 11.1977 31.4992 11.158L17.7124 3.207C17.6473 3.17038 17.574 3.15115 17.4994 3.15115C17.4248 3.15115 17.3514 3.17038 17.2864 3.207L3.50758 11.1607C3.44185 11.1995 3.38728 11.2547 3.34914 11.3209C3.31101 11.387 3.2906 11.4619 3.28989 11.5382V27.4496C3.29008 27.5246 3.31021 27.5983 3.34823 27.663C3.38624 27.7277 3.44078 27.7811 3.50624 27.8178L7.28755 30C9.33677 31.024 10.5918 29.8173 10.5918 28.6052V12.8954C10.5918 12.7885 10.6343 12.686 10.7099 12.6104C10.7855 12.5348 10.888 12.4923 10.995 12.4923H12.7418C12.8487 12.4923 12.9513 12.5348 13.0269 12.6104C13.1025 12.686 13.145 12.7885 13.145 12.8954V28.6066C13.145 31.3411 11.6561 32.9066 9.06264 32.9066C7.94381 32.926 6.84251 32.6268 5.88736 32.0439L2.26327 29.9651C1.82331 29.7089 1.45825 29.3418 1.20454 28.9003C0.950825 28.4589 0.817334 27.9587 0.817392 27.4496V11.5382C0.816085 11.0283 0.94901 10.5271 1.20281 10.0848C1.45661 9.64253 1.82235 9.27485 2.26327 9.01871L16.0515 1.05834C16.4956 0.815347 16.9938 0.687988 17.5 0.687988C18.0063 0.687988 18.5045 0.815347 18.9486 1.05834L32.7355 9.01871C33.1754 9.27442 33.5405 9.64103 33.7945 10.082C34.0484 10.5229 34.1823 11.0227 34.1827 11.5315V27.4496C34.182 27.9587 34.048 28.4588 33.7941 28.9001C33.5402 29.3414 33.1752 29.7085 32.7355 29.9651L18.9486 37.9255C18.5082 38.1796 18.0085 38.3131 17.5 38.3125Z" fill="#83CD29"/>
</svg>
