<svg width="40" height="36" viewBox="0 0 40 36" fill="none" xmlns="http://www.w3.org/2000/svg">
<path d="M32.888 11.6564C32.4623 11.5088 32.033 11.3721 31.6005 11.2463C31.6731 10.9463 31.74 10.65 31.7994 10.3588C32.7741 5.5776 32.1369 1.72576 29.9605 0.457551C27.8737 -0.758238 24.4611 0.509499 21.0145 3.5406C20.6749 3.83987 20.3427 4.14776 20.0184 4.46397C19.8013 4.2537 19.5804 4.04751 19.3558 3.8455C15.7436 0.604552 12.123 -0.761396 9.94891 0.510446C7.86406 1.73003 7.24672 5.35103 8.12422 9.88229C8.21152 10.3311 8.31009 10.7775 8.41984 11.2212C7.90734 11.3684 7.41281 11.525 6.93953 11.6918C2.70453 13.1839 0 15.5221 0 17.9476C0 20.4526 2.90344 22.9651 7.31437 24.4887C7.67198 24.6117 8.03256 24.7256 8.39578 24.8305C8.27782 25.3084 8.17309 25.7895 8.08172 26.2733C7.24516 30.726 7.89844 34.2614 9.97766 35.4732C12.1252 36.7247 15.7295 35.4385 19.2391 32.3382C19.5236 32.0862 19.802 31.827 20.0737 31.5609C20.4249 31.9033 20.7855 32.2358 21.155 32.5579C24.5547 35.514 27.9122 36.7077 29.9894 35.4925C32.1348 34.2374 32.8322 30.4394 31.9269 25.8186C31.8556 25.4566 31.7756 25.0964 31.687 24.7383C31.9402 24.6625 32.1886 24.5845 32.4308 24.5033C37.0164 22.9681 40 20.486 40 17.9476C40 15.5133 37.2081 13.1592 32.888 11.6564ZM31.8934 22.8644C31.6747 22.9375 31.4503 23.0081 31.2216 23.0768C30.7153 21.4572 30.0322 19.7352 29.1961 17.9559C29.9939 16.2191 30.6508 14.519 31.1428 12.9101C31.552 13.0298 31.9491 13.1559 32.3319 13.289C36.0334 14.5768 38.2912 16.4806 38.2912 17.9476C38.2912 19.5101 35.8528 21.5386 31.8934 22.8644ZM30.2506 26.154C30.6509 28.1971 30.708 30.0445 30.4428 31.4888C30.2047 32.7865 29.7256 33.6516 29.1331 33.9982C27.8727 34.7356 25.1769 33.7771 22.2695 31.2489C21.9258 30.9495 21.5904 30.6404 21.2638 30.3221C22.3909 29.0764 23.5173 27.6284 24.6167 26.0201C26.5505 25.8467 28.3773 25.5631 30.0341 25.1761C30.1139 25.5003 30.1861 25.8263 30.2506 26.154ZM13.6369 33.8708C12.4053 34.3102 11.4244 34.3228 10.8314 33.9773C9.56969 33.242 9.04516 30.4032 9.76062 26.5954C9.84567 26.1455 9.94306 25.698 10.0527 25.2535C11.6911 25.6198 13.5047 25.8832 15.443 26.042C16.5498 27.6158 17.7087 29.0622 18.8767 30.3289C18.6285 30.5716 18.3744 30.8081 18.1147 31.0381C16.5627 32.409 15.0075 33.3816 13.6369 33.8708ZM7.86719 22.8548C5.91672 22.181 4.30594 21.3055 3.20188 20.3501C2.20969 19.4916 1.70891 18.6391 1.70891 17.9476C1.70891 16.4757 3.88031 14.5983 7.50203 13.3223C7.94156 13.1676 8.40156 13.0216 8.87891 12.8845C9.37953 14.5298 10.0361 16.25 10.8284 17.9896C10.0258 19.7548 9.35984 21.5026 8.85437 23.1672C8.52283 23.0713 8.19367 22.9671 7.86719 22.8548ZM9.80125 9.55055C9.04953 5.66839 9.54875 2.73992 10.8052 2.00492C12.1433 1.22208 15.1023 2.33824 18.2212 5.13676C18.4246 5.31966 18.6247 5.50627 18.8214 5.6965C17.6592 6.9576 16.5109 8.39334 15.4139 9.95776C13.5327 10.134 11.7319 10.4169 10.0763 10.796C9.97425 10.3833 9.88255 9.96793 9.80125 9.55055ZM27.0555 13.856C26.6644 13.1734 26.2589 12.4994 25.8391 11.8345C27.1153 11.9976 28.3381 12.2141 29.4864 12.4787C29.1417 13.5953 28.712 14.7627 28.2063 15.9595C27.8366 15.2507 27.4529 14.5494 27.0555 13.856ZM20.0192 6.9306C20.8073 7.7935 21.5967 8.75681 22.3731 9.80208C20.7981 9.72691 19.2205 9.7266 17.6455 9.80113C18.4227 8.7655 19.2188 7.80345 20.0192 6.9306ZM12.9378 13.8679C12.5454 14.5556 12.1689 15.2526 11.8086 15.9581C11.3111 14.7655 10.8853 13.5928 10.5377 12.4604C11.6789 12.2024 12.8959 11.9914 14.1641 11.8313C13.7396 12.5003 13.3307 13.1795 12.9378 13.8679ZM14.2005 24.1866C12.8903 24.0388 11.655 23.8388 10.5141 23.5877C10.8672 22.4351 11.3023 21.2374 11.8106 20.0193C12.1723 20.7253 12.5504 21.4227 12.9445 22.1108C13.3498 22.8181 13.7695 23.511 14.2005 24.1866ZM20.0664 29.0861C19.2564 28.2031 18.4486 27.2262 17.6597 26.1756C18.4256 26.2059 19.2064 26.2214 20 26.2214C20.8153 26.2214 21.6213 26.2029 22.4145 26.1672C21.6356 27.2368 20.8492 28.2151 20.0664 29.0861ZM28.2223 19.9571C28.757 21.1887 29.2077 22.38 29.5655 23.5129C28.4058 23.7803 27.1536 23.9957 25.8342 24.1557C26.257 23.4784 26.6664 22.7927 27.0622 22.0989C27.4646 21.3938 27.8514 20.6796 28.2223 19.9571ZM25.582 21.2362C24.9761 22.2998 24.3361 23.3433 23.6631 24.3649C22.444 24.4521 21.2222 24.4955 20 24.4948C18.7552 24.4948 17.5444 24.4557 16.3784 24.3792C15.6878 23.36 15.0357 22.3147 14.4233 21.2457C13.8138 20.1823 13.2446 19.0958 12.7167 17.9888C13.2433 16.8814 13.8109 15.7945 14.4183 14.7303L14.4181 14.7304C15.0253 13.666 15.6723 12.6252 16.3577 11.6103C17.5472 11.5193 18.767 11.472 19.9998 11.472C21.2383 11.472 22.4598 11.5198 23.6491 11.6114C24.3275 12.6247 24.9704 13.662 25.5764 14.7211C26.1858 15.783 26.7609 16.8646 27.3008 17.9643C26.7665 19.0752 26.1932 20.1665 25.582 21.2362ZM29.107 1.95345C30.4464 2.73408 30.9673 5.88202 30.1258 10.0102C30.072 10.2736 30.0117 10.5418 29.9461 10.8139C28.2864 10.4267 26.4844 10.1389 24.5977 9.95997C23.4986 8.37834 22.3597 6.94039 21.2164 5.69555C21.516 5.40368 21.8228 5.11939 22.1364 4.84292C25.0895 2.24603 27.8495 1.22066 29.107 1.95345ZM20 14.3381C21.9727 14.3381 23.5719 15.9541 23.5719 17.9476C23.5719 19.941 21.9727 21.557 20 21.557C18.0273 21.557 16.4281 19.941 16.4281 17.9476C16.4281 15.9541 18.0273 14.3381 20 14.3381Z" fill="#00D8FF"/>
</svg>
